<svg xmlns="http://www.w3.org/2000/svg" width="1440" height="1440" viewBox="0 0 1440 1440"><path d="M-295.234 1256.481h-123.833v216h123.833l46.167-54v-108l-46.167-54zm-15.965 125.5l-15.533 17.5h-30.635v-71h31.066l15.102 18v35.5z"/><path fill="none" d="M-357.367 1328.481v71h30.635l15.533-17.5v-35.5l-15.102-18z"/><path d="M-395.828 1083.316h46.976m-152.675-.253l29.758.253 10.298 7.934v28.565l-10.298 7.934-29.758-.252zm55.674 8.187l10.297-7.934h22.312l10.297 7.934v28.565l-10.074 7.934h-22.535l-10.297-7.934zm73.687-7.934v46.795m108.883-49.125v46.763h33.099m68.319-44.433h35.388l4.004 6.284v6.411l-7.192 9.395 7.192 9.331v6.728l-4.004 6.284h-35.388zm-181.789 46.795l.124-24.451 16.346-22.344h6.129l16.345 22.344-.125 24.451m88.629 0l.078-24.451 16.345-22.344h6.13l16.345 22.344-.125 24.451" fill="none" stroke="#595757" stroke-width="5" stroke-miterlimit="10"/><path fill="none" d="M-273.512 1029.333l.073-.257-.122.142zm-15.96-90.5l-15.53 17.5 16.572 38.415 27.189-8.641 3.14-11.062z"/><path fill="none" d="M-261.241 986.107l9.977-3.171-6.837-7.891z"/><path d="M-227.487 867.205l-30.614 107.84 6.837 7.891 23.864-7.585.058-.068-.095-108.062-15.302-17.898-8.876 10.258z"/><path fill="#595757" d="M-251.615 859.581l8.876-10.258-30.773-35.99-29.84.048-11.733 26.144zm-62.606 143.364l25.791-8.197-16.572-38.415h-30.568"/><path fill="none" d="M-359.828 825.387l24.186 59.946 20.557-45.808z"/><path fill="#B5B5B6" d="M-315.085 839.525l11.733-26.144-61.28.099 4.804 11.907z"/><path fill="none" d="M-335.572 954.291l-.07-68.958-14.903 34.838"/><path d="M-289.472 903.333l37.857-43.752-63.47-20.056-20.557 45.808h31.07z"/><path fill="#595757" d="M-289.472 938.833l31.371 36.212 30.614-107.84-24.128-7.624-37.857 43.752zm-107.771 90.5h94.602l-11.58-26.388z"/><path d="M-314.221 1002.945l11.58 26.388h28.982l.098-.115-14.869-34.47z"/><path d="M-288.43 994.748l14.869 34.47.122-.142 12.198-42.969z"/><path fill="#B5B5B6" d="M-364.632 813.48l-32.71.053 37.514 11.854z"/><path fill="#595757" d="M-261.241 986.107l-12.198 42.969 30.904-36.063-8.729-10.077z"/><path d="M-251.264 982.936l8.729 10.077 15.135-17.662z"/><path fill="#595757" d="M-359.828 825.387l-37.514-11.854 61.7 71.8z"/><path fill="#B5B5B6" d="M-397.342 813.533v215.8h.099l46.698-109.162z"/><path fill="#898989" d="M-335.642 885.333l-61.7-71.8 46.797 106.638z"/><path fill="none" d="M-334.676 956.333h-.894l-61.673 73 83.022-26.388m-20.455-46.612h29.674l15.53-17.5v-35.5l-15.1-18h-31.07l.07 68.958"/><path fill="none" d="M-335.572 954.291l.002 2.042h.894"/><path fill="#898989" d="M-258.101 975.045l6.837 7.891-9.977 3.171 3.14-11.062"/><path fill="#595757" d="M-335.642 885.333l.072 71-14.975-36.162z"/><path fill="#898989" d="M-397.243 1029.333l83.022-26.388-21.349-46.612z"/><path d="M-397.243 1029.333l61.673-73-14.975-36.162z"/><path fill="#B5B5B6" d="M-289.472 938.833l31.371 36.212-3.14 11.062-27.189 8.641-16.572-38.415z"/><path fill="#595757" d="M-359.828 825.387l44.743 14.138-20.557 45.808z"/><path fill="#B5B5B6" d="M-242.739 849.323l-8.876 10.258 24.128 7.624z"/><path d="M-419.47 1526.364h46.976m-152.675-.253l29.759.253 10.297 7.935v28.564l-10.297 7.935-29.759-.253zm55.674 8.188l10.298-7.935h22.311l10.298 7.935v28.564l-10.075 7.935h-22.534l-10.298-7.935zm73.688-7.935v46.796m108.883-49.125v46.762h33.098m68.32-44.433h35.387l4.004 6.284v6.411l-7.192 9.395 7.192 9.331v6.728l-4.004 6.285h-35.387zm-181.79 46.796l.125-24.452 16.345-22.344h6.129l16.345 22.344-.125 24.452m88.63 0l.077-24.452 16.346-22.344h6.129l16.345 22.344-.125 24.452" fill="none" stroke="#000" stroke-width="5" stroke-miterlimit="10"/><path d="M-1233.772 1209.295h46.976m-152.675-.253l29.758.253 10.298 7.934v28.565l-10.298 7.934-29.758-.252zm55.674 8.187l10.297-7.934h22.312l10.297 7.934v28.565l-10.075 7.934h-22.534l-10.297-7.934zm73.687-7.934v46.795m108.883-49.125v46.763h33.099m68.319-44.433h35.387l4.005 6.284v6.411l-7.192 9.395 7.192 9.331v6.728l-4.005 6.284h-35.387zm-181.789 46.795l.124-24.452 16.345-22.343h6.13l16.345 22.343-.126 24.452m88.63 0l.078-24.452 16.345-22.343h6.129l16.346 22.343-.126 24.452" fill="none" stroke="#821A1F" stroke-width="5" stroke-miterlimit="10"/><path fill="none" d="M-1111.456 1155.312l.073-.257-.122.142zm-15.96-90.5l-15.53 17.5 16.571 38.415 27.19-8.641 3.14-11.062zm28.231 47.274l9.976-3.171-6.836-7.891z"/><path fill="#821A1F" d="M-1065.431 993.184l-30.614 107.84 6.836 7.891 23.864-7.585.059-.068-.096-108.063-15.302-17.897-8.875 10.258z"/><path fill="#D84241" d="M-1089.559 985.56l8.875-10.258-30.772-35.991-29.841.049-11.732 26.144z"/><path fill="#B01E24" d="M-1152.165 1128.924l25.79-8.197-16.571-38.415h-30.568"/><path fill="none" d="M-1197.772 951.366l24.186 59.945 20.557-45.807z"/><path fill="#F3A38A" d="M-1153.029 965.504l11.732-26.144-61.279.099 4.804 11.907z"/><path fill="none" d="M-1173.516 1080.27l-.07-68.959-14.904 34.839"/><path fill="#821A1F" d="M-1127.416 1029.312l37.857-43.752-63.47-20.056-20.557 45.807h31.07z"/><path fill="#B01E24" d="M-1127.416 1064.812l31.371 36.212 30.614-107.84-24.128-7.624-37.857 43.752zm-107.771 90.5h94.602l-11.58-26.388z"/><path fill="#821A1F" d="M-1152.165 1128.924l11.58 26.388h28.982l.098-.115-14.87-34.47z"/><path fill="#821A1F" d="M-1126.375 1120.727l14.87 34.47.122-.142 12.198-42.969z"/><path fill="#F3A38A" d="M-1202.576 939.459l-32.71.053 37.514 11.854z"/><path fill="#B01E24" d="M-1099.185 1112.086l-12.198 42.969 30.904-36.063-8.73-10.077z"/><path fill="#821A1F" d="M-1089.209 1108.915l8.73 10.077 15.134-17.662z"/><path fill="#B01E24" d="M-1197.772 951.366l-37.514-11.854 61.7 71.799z"/><path fill="#D84241" d="M-1235.286 939.512v215.8h.099l46.697-109.162z"/><path fill="#F3A38A" d="M-1173.586 1011.311l-61.7-71.799 46.796 106.638z"/><path fill="none" d="M-1172.62 1082.312h-.894l-61.673 73 83.022-26.388m-20.455-46.612h29.674l15.53-17.5v-35.5l-15.1-18.001h-31.07l.07 68.959"/><path fill="none" d="M-1173.516 1080.27l.002 2.042h.894"/><path fill="#D84241" d="M-1096.045 1101.024l6.836 7.891-9.976 3.171 3.14-11.062"/><path fill="#B01E24" d="M-1173.586 1011.311l.072 71.001-14.976-36.162z"/><path fill="#D84241" d="M-1235.187 1155.312l83.022-26.388-21.349-46.612z"/><path fill="#821A1F" d="M-1235.187 1155.312l61.673-73-14.976-36.162z"/><path fill="#F3A38A" d="M-1127.416 1064.812l31.371 36.212-3.14 11.062-27.19 8.641-16.571-38.415z"/><path fill="#B01E24" d="M-1197.772 951.366l44.743 14.138-20.557 45.807z"/><path fill="#F3A38A" d="M-1080.684 975.302l-8.875 10.258 24.128 7.624z"/><g fill="none" stroke="#821A1F" stroke-linecap="round" stroke-linejoin="round" stroke-miterlimit="10"><path d="M-273.17 553.018l.073-.257-.122.143zm-15.96-90.5l-15.53 17.5 16.572 38.416 27.189-8.642 3.14-11.061z"/><path d="M-260.899 509.792l9.976-3.17-6.836-7.891z"/><path d="M-227.145 390.89l-30.614 107.841 6.836 7.891 23.864-7.585.059-.069-.096-108.062-15.302-17.897-8.875 10.257z"/><path d="M-251.273 383.266l8.875-10.257-30.772-35.991-29.841.048-11.732 26.145zm-62.606 143.365l25.791-8.197-16.572-38.416h-30.568"/><path d="M-359.486 349.072l24.186 59.946 20.557-45.807z"/><path d="M-314.743 363.211l11.732-26.145-61.279.1 4.804 11.906zm-20.487 114.766l-.07-68.959-14.903 34.839"/><path d="M-289.13 427.018l37.857-43.752-63.47-20.055-20.557 45.807h31.07z"/><path d="M-289.13 462.518l31.371 36.213 30.614-107.841-24.128-7.624-37.857 43.752zm-107.771 90.5h94.602l-11.58-26.387z"/><path d="M-313.879 526.631l11.58 26.387h28.982l.098-.114-14.869-34.47z"/><path d="M-288.088 518.434l14.869 34.47.122-.143 12.198-42.969zm-76.202-181.268l-32.71.053 37.514 11.853zm103.391 172.626l-12.198 42.969 30.904-36.063-8.73-10.076z"/><path d="M-250.923 506.622l8.73 10.076 15.134-17.661zm-108.563-157.55L-397 337.219l61.7 71.799zM-397 337.219v215.799h.099l46.698-109.161z"/><path d="M-335.3 409.018l-61.7-71.799 46.797 106.638zm.966 71h-.894l-61.673 73 83.022-26.387"/><path d="M-334.334 480.018h29.674l15.53-17.5v-35.5l-15.1-18h-31.07l.07 68.959"/><path d="M-335.23 477.977l.002 2.041h.894m76.575 18.713l6.836 7.891-9.976 3.17 3.14-11.061m-77.541-89.713l.072 71-14.975-36.161zm-61.601 144l83.022-26.387-21.349-46.613zm0 0l61.673-73-14.975-36.161zm107.771-90.5l31.371 36.213-3.14 11.061-27.189 8.642-16.572-38.416zm-70.356-113.446l44.743 14.139-20.557 45.807zm117.088 23.937l-8.875 10.257 24.128 7.624z"/></g><path d="M-396.043 603.925h46.976m-152.675-.253l29.758.253 10.298 7.934v28.565l-10.298 7.934-29.758-.252zm55.674 8.187l10.298-7.934h22.311l10.297 7.934v28.565l-10.074 7.934h-22.534l-10.298-7.934zm73.687-7.934v46.796m108.883-49.125v46.762h33.099m68.319-44.433h35.388l4.004 6.284v6.411l-7.192 9.395 7.192 9.331v6.728l-4.004 6.284h-35.388zm-181.789 46.796l.124-24.452 16.346-22.344h6.129l16.345 22.344-.125 24.452m88.629 0l.078-24.452 16.345-22.344h6.13l16.345 22.344-.125 24.452" fill="none" stroke="#821A1F" stroke-width="2" stroke-linecap="round" stroke-linejoin="round" stroke-miterlimit="10"/><g fill="none" stroke="#FFF" stroke-linecap="round" stroke-linejoin="round" stroke-miterlimit="10"><path d="M-295.208 1472.481l.073-.257-.122.143zm-15.96-90.5l-15.53 17.5 16.572 38.416 27.189-8.642 3.14-11.062z"/><path d="M-282.937 1429.255l9.976-3.171-6.836-7.891zm-42.111-172.726l-11.733 26.144 63.47 20.056 8.875-10.257m-71.481 153.622l25.791-8.197-16.572-38.416h-30.568m-24.258-130.946l24.186 59.946 20.557-45.808zm-4.804-11.907l4.804 11.907 44.743 14.138 11.733-26.144m-32.22 140.911l-.07-68.959-14.903 34.838"/><path d="M-311.168 1346.481l37.857-43.752-63.47-20.056-20.557 45.808h31.07z"/><path d="M-311.168 1381.981l31.371 36.212 30.614-107.84-24.128-7.624-37.857 43.752zm-13.169 90.5l-11.58-26.387-83.022 26.387m123.584 0l.098-.114-14.869-34.47-25.791 8.197 11.58 26.387m14.211-34.584l14.869 34.47.122-.143 12.198-42.969zm-108.912-181.216l37.514 11.854-4.804-11.907m122.097 179.533l-8.73-10.077-9.976 3.171-12.198 42.969"/><path d="M-249.096 1418.5l-23.865 7.584 8.73 10.077m-117.293-167.626l-37.514-11.854 61.7 71.8zm-37.514 203.946h.099l46.698-109.162-46.797-106.638"/><path d="M-357.338 1328.481l-61.7-71.8 46.797 106.638zm.966 71h-.894l-61.673 73 83.022-26.387"/><path d="M-356.372 1399.481h29.674l15.53-17.5v-35.5l-15.1-18h-31.07l.07 68.959"/><path d="M-357.268 1397.44l.002 2.041h.894m76.575 18.712l6.836 7.891-9.976 3.171 3.14-11.062m-77.541-89.712l.072 71-14.975-36.162zm-61.601 144l83.022-26.387-21.349-46.613z"/><path d="M-418.939 1472.481l61.673-73-14.975-36.162zm107.771-90.5l31.371 36.212-3.14 11.062-27.189 8.642-16.572-38.416zm-70.356-113.446l44.743 14.138-20.557 45.808z"/></g><path fill="#821A1F" d="M302.774 1213.87l-20.466 16.632h-39.523l-20.466-16.632v-12.456h-17.641v16.415l30.579 25.346h54.579l30.814-25.346v-16.415h-17.876z"/><path fill="#821A1F" d="M300.891 1162.381h-78.572v-28.515l20.466-16.635h39.523l27.287 22.575 11.762-9.109-31.521-26.139h-54.579l-30.579 25.347v71.509h17.641v-26.757h68.693l11.762 16.438v10.319h17.876v-10.911zm145.861 51.489l-20.47 16.632h-39.517l-20.469-16.632v-12.456h-17.641v16.415l30.582 25.346h54.573l30.817-25.346v-16.415h-17.875zm-1.884-51.489h-78.572v-28.515l20.469-16.635h39.517l27.29 22.575 11.763-9.109-31.525-26.139h-54.573l-30.582 25.347v71.509h17.641v-26.757h68.693l11.763 16.438v10.319h17.875v-10.911zm145.861 51.489l-20.466 16.632h-39.52l-20.467-16.632v-12.456h-17.644v16.415l30.583 25.346h54.575l30.817-25.346v-16.415h-17.878zm-1.884-51.489h-78.569v-28.515l20.467-16.635h39.52l27.286 22.575 11.763-9.109-31.522-26.139h-54.575l-30.583 25.347v71.509h17.644v-26.757h68.69l11.763 16.438v10.319h17.878v-10.911zm211.207 51.489l-20.232 16.632h-63.75v-29.088h-17.878v41.761h88.922l30.816-25.346v-16.415h-17.878zm-12.938-109.312h-88.922v96.856h17.878v-84.183h63.75l20.232 16.635v67.548h17.878v-71.509zm191.262 109.312l-20.23 16.632h-51.283l-20.232-16.632v-12.456h-17.878v16.415l30.583 25.346h66.335l30.583-25.346v-16.415h-17.878zm-12.705-109.312h-66.335l-30.583 25.347v71.509h17.878v-67.548l20.232-16.635h51.283l20.23 16.635v67.548h17.878v-71.509zm106.107 96.856h17.878v41.761h-17.878zm66.338-84.183v-12.673h-114.799v12.673h48.461v84.183h17.878v-84.183zm16.243 84.183v41.761h17.878v-41.761zm98.328 29.956v11.805h17.881v-41.761h-17.881zm-25.877-126.812h-28.699l-43.752 69.307v27.549h17.878v-27.352l36.224-57.226h7.999l36.227 57.226v27.352h17.881v-27.549z"/><path fill="none" d="M859.804 980.652l.206-.724-.344.403zm-44.998-255.159l-43.786 49.34 46.724 108.312 76.658-24.366 8.855-31.188z"/><path fill="none" d="M894.402 858.779l28.129-8.94-19.274-22.248z"/><path fill="#821A1F" d="M989.569 523.543l-86.312 304.048 19.274 22.248 67.283-21.386.164-.191-.268-304.674-43.143-50.459-25.026 28.919z"/><path fill="#D84241" d="M921.541 502.048l25.026-28.919-86.763-101.475-84.132.136-33.08 73.711z"/><path fill="#B01E24" d="M745.028 906.256l72.716-23.111-46.724-108.312h-86.184"/><path fill="none" d="M616.442 405.64l68.191 169.014 57.959-129.153z"/><path fill="#F3A38A" d="M742.592 445.501l33.08-73.711-172.774.279 13.544 33.571z"/><path fill="none" d="M684.83 769.079l-.197-194.425-42.018 98.223"/><path fill="#821A1F" d="M814.806 625.403l106.735-123.355-178.949-56.547-57.959 129.153h87.6z"/><path fill="#B01E24" d="M814.806 725.493l88.451 102.098 86.312-304.048-68.028-21.495-106.735 123.355zM510.953 980.652h266.724l-32.649-74.396z"/><path fill="#821A1F" d="M745.028 906.256l32.649 74.396h81.713l.276-.321-41.922-97.186zm72.716-23.111l41.922 97.186.344-.403 34.392-121.149z"/><path fill="#F3A38A" d="M602.898 372.069l-92.224.149 105.768 33.422z"/><path fill="#B01E24" d="M894.402 858.779L860.01 979.928l87.132-101.678-24.611-28.411z"/><path fill="#821A1F" d="M922.531 849.839l24.611 28.411 42.672-49.797z"/><path fill="#B01E24" d="M616.442 405.64l-105.768-33.422 173.959 202.436z"/><path fill="#D84241" d="M510.674 372.218v608.434h.279l131.662-307.775z"/><path fill="#F3A38A" d="M684.633 574.654L510.674 372.218l131.941 300.659z"/><path fill="none" d="M687.357 774.833h-2.521L510.953 980.652l234.075-74.396m-57.671-131.423h83.663l43.786-49.34v-100.09l-42.573-50.749h-87.6l.197 194.425"/><path fill="none" d="M684.83 769.079l.006 5.754h2.521"/><path fill="#D84241" d="M903.257 827.591l19.274 22.248-28.129 8.94 8.855-31.188"/><path fill="#B01E24" d="M684.633 574.654l.203 200.179-42.221-101.956z"/><path fill="#D84241" d="M510.953 980.652l234.075-74.396-60.192-131.423z"/><path fill="#821A1F" d="M510.953 980.652l173.883-205.819-42.221-101.956z"/><path fill="#F3A38A" d="M814.806 725.493l88.451 102.098-8.855 31.188-76.658 24.366-46.724-108.312z"/><path fill="#B01E24" d="M616.442 405.64l126.15 39.861-57.959 129.153z"/><path fill="#F3A38A" d="M946.567 473.129l-25.026 28.919 68.028 21.495z"/><path fill="none" d="M39.039 75.194h1361.922V1375.79H39.039z"/></svg>